<svg xmlns="http://www.w3.org/2000/svg" version="1.1" xmlns:xlink="http://www.w3.org/1999/xlink" xmlns:svgjs="http://svgjs.dev/svgjs" width="100%" height="100%" viewBox="0 0 1000 600"><rect width="1000" height="600" x="0" y="0" fill="#96351e"/><g><rect width="333.3333333333333" height="333.3333333333333" y="228.69702612372737" fill="#dbb98f" transform="matrix(0.6054007183221414,0,0,0.6054007183221414,-9.478802526054071,60.6465264130492)" x="246.15316772460938"/><path d="M395.1427302325717 470.36369153127697L377.4860548503094 470.36369153127697L377.4860548503094 362.5844022187176Q377.4860548503094 357.2710508305368 375.48333009630284 352.61165038243985Q373.439733408541 347.95224993434283 370.0064909731011 344.47813556514774Q366.5732485376612 341.0448931297078 361.87297615580894 339.04216837570124Q357.213575707712 336.9985716879394 351.9002243195312 336.9985716879394L351.9002243195312 336.9985716879394L343.15363049591053 336.9985716879394Q337.84027910772977 336.9985716879394 333.1400067258775 339.04216837570124Q328.48060627778057 341.0448931297078 324.9656199748302 344.47813556514774Q321.4506336718798 347.95224993434283 319.44790891787324 352.61165038243985Q317.4043122301114 357.2710508305368 317.4043122301114 362.5844022187176L317.4043122301114 362.5844022187176L317.4043122301114 470.36369153127697L299.87025264911483 470.36369153127697L299.87025264911483 362.5844022187176Q299.87025264911483 357.2710508305368 297.8675278951082 352.61165038243985Q295.8648031411016 347.95224993434283 292.34981683815124 344.47813556514774Q288.8348305352009 341.0448931297078 284.1345581533486 339.04216837570124Q279.47515770525166 336.9985716879394 274.1618063170709 336.9985716879394L274.1618063170709 336.9985716879394L265.4152124934502 336.9985716879394Q260.10186110526945 336.9985716879394 255.40158872341723 339.04216837570124Q250.74218827532025 341.0448931297078 247.30894583988035 344.47813556514774Q243.83483147068523 347.95224993434283 241.83210671667862 352.61165038243985Q239.82938196267202 357.2710508305368 239.82938196267202 362.5844022187176L239.82938196267202 362.5844022187176L239.82938196267202 470.36369153127697L222.1318346466545 470.36369153127697L222.1318346466545 323.22473001242463L228.05826504116382 323.22473001242463L237.66316947364447 338.18385776684124Q243.7122156694195 329.9685990820387 252.8266568968373 325.14571089892075Q261.9410981242551 320.36369464955806 272.7312886356376 320.36369464955806L272.7312886356376 320.36369464955806L274.1618063170709 320.36369464955806Q286.6686180461733 320.36369464955806 296.7231137499616 326.5353566465988Q306.77760945374985 332.70701864363957 312.2544485769515 342.9250020824487L312.2544485769515 342.9250020824487Q314.9928681385524 337.8977542305546 318.9983176465656 333.7288169875205Q323.00376715457884 329.5598797444863 327.9083992052072 326.61710051410927Q332.77215932208037 323.67432128373224 338.5351019815688 321.99857199976753Q344.2980446410572 320.36369464955806 350.46970663809793 320.36369464955806L350.46970663809793 320.36369464955806L351.9002243195312 320.36369464955806Q360.8103058781728 320.36369464955806 368.6985890929335 323.71519321748747Q376.6277442414495 327.10756371917216 382.51330270220353 332.9931221799262Q388.39886116295764 338.8786806406803 391.7912316646423 346.80783578919625Q395.1427302325717 354.69611900395694 395.1427302325717 363.60620056259853L395.1427302325717 363.60620056259853L395.1427302325717 470.36369153127697ZM603.5078485167686 323.22473001242463L554.3797841429741 470.36369153127697L544.7340077767383 470.36369153127697L510.2380956873184 359.4372633195644L509.6658886147451 351.83508364109036L509.0936815421718 359.4372633195644L474.5977694527519 470.36369153127697L464.8293772852504 470.36369153127697L415.70131291145583 323.22473001242463L433.64409183000475 323.22473001242463L468.71221099199795 434.43726176042384L469.28441806457124 442.0394414388979L469.85662513714453 434.43726176042384L504.3525372265643 323.22473001242463L514.9792400029258 323.22473001242463L549.35253629108 434.43726176042384L549.9247433636533 442.0394414388979L550.4969504362266 434.43726176042384L585.5241976644645 323.22473001242463L603.5078485167686 323.22473001242463Z " fill="#96351e" transform="matrix(0.6054007183221414,0,0,0.6054007183221414,-9.478802526054071,60.6465264130492)"/><path d="M767.2123240139917 468.3093006446043L753.9174699367961 468.3093006446043L753.9174699367961 366.8810099364634L752.978319096906 373.19092964197563L718.6406165134208 468.3093006446043L711.5969852142443 468.3093006446043L676.9364495295468 373.19092964197563L676.1146925446429 366.8810099364634L676.1146925446429 468.3093006446043L662.8198384674474 468.3093006446043L662.8198384674474 320.36369489815223L669.716727447891 320.36369489815223L714.5905285163943 441.69024402646664L715.0014070088463 447.14905828332843L715.4416339650447 441.69024402646664L760.1980411785619 320.36369489815223L767.2123240139917 320.36369489815223L767.2123240139917 468.3093006446043ZM865.2361929275307 468.3093006446043L861.0100141480249 468.3093006446043L853.995731312595 457.7732021595862Q849.6521586781029 463.4668041264205 843.1661481901112 466.9299228485156Q836.650789238373 470.36369310686416 828.9321432730254 470.36369310686416L828.9321432730254 470.36369310686416L825.7331607246495 470.36369310686416Q819.3351956278975 470.36369310686416 813.6415936610632 467.95711907964557Q807.9773401579755 465.5211965886803 803.7511613784696 461.29501780917445Q799.5249825989638 457.0688390296686 797.0890601079985 451.3752370628343Q794.68248608078 445.7109835597466 794.68248608078 439.3130184629946L794.68248608078 439.3130184629946L794.68248608078 438.2858222318647Q794.68248608078 431.88785713511277 797.0890601079985 426.223603632025Q799.5249825989638 420.5300016651907 803.7511613784696 416.30382288568484Q807.9773401579755 412.077644106179 813.6415936610632 409.6417216152138Q819.3351956278975 407.2351475879952 825.7331607246495 407.2351475879952L825.7331607246495 407.2351475879952L852.5576565890132 407.2351475879952L852.5576565890132 390.91740174490303Q852.5576565890132 387.10210145784913 851.1195818654313 383.75637659074033Q849.6521586781029 380.4106517236315 847.1868877233911 377.9160323051732Q844.7216167686794 375.4507613504614 841.3465434378239 374.01268662687954Q838.0008185707151 372.5452634395511 834.1855182836613 372.5452634395511L834.1855182836613 372.5452634395511L826.7603569557793 372.5452634395511Q822.9450566687254 372.5452634395511 819.5993318016166 374.01268662687954Q816.2242584707612 375.4507613504614 813.7589875160495 377.9160323051732Q811.2937165613378 380.4106517236315 809.8262933740093 383.75637659074033Q808.3882186504275 387.10210145784913 808.3882186504275 390.91740174490303L808.3882186504275 390.91740174490303L808.3882186504275 394.732702031957L795.7096823119099 392.67830956969715L795.7096823119099 391.65111333856726Q795.7096823119099 385.2531482418153 798.1162563391284 379.58889473872756Q800.5521788300937 373.89529277189325 804.7783576095995 369.6691139923874Q809.0045363891054 365.44293521288154 814.6981383559397 363.00701272191634Q820.3623918590274 360.6004386946977 826.7603569557793 360.6004386946977L826.7603569557793 360.6004386946977L834.1855182836613 360.6004386946977Q840.5834833804132 360.6004386946977 846.2477368835009 363.00701272191634Q851.9413388503352 365.44293521288154 856.1675176298411 369.6691139923874Q860.393696409347 373.89529277189325 862.8296189003122 379.58889473872756Q865.2361929275307 385.2531482418153 865.2361929275307 391.65111333856726L865.2361929275307 391.65111333856726L865.2361929275307 468.3093006446043ZM852.5576565890132 440.0467300566588L852.5576565890132 417.12557987058875L825.7331607246495 417.12557987058875Q821.9178604375956 417.12557987058875 818.5427871067402 418.5636545941706Q815.1970622396314 420.03107778149905 812.7317912849196 422.55504566370394Q810.2371718664613 425.0790135459088 808.7990971428794 428.4247384130177Q807.3610224192976 431.7704632801265 807.3610224192976 435.615112030927L807.3610224192976 435.615112030927L807.3610224192976 440.0467300566588Q807.3610224192976 443.8620303437127 808.7990971428794 447.2077552108215Q810.2371718664613 450.5534800779304 812.7317912849196 453.0480994963887Q815.1970622396314 455.51337045110046 818.5427871067402 456.9514451746823Q821.9178604375956 458.38951989826415 825.7331607246495 458.38951989826415L825.7331607246495 458.38951989826415L834.1855182836613 458.38951989826415Q838.0008185707151 458.38951989826415 841.3465434378239 456.9514451746823Q844.7216167686794 455.51337045110046 847.1868877233911 453.0480994963887Q849.6521586781029 450.5534800779304 851.1195818654313 447.2077552108215Q852.5576565890132 443.8620303437127 852.5576565890132 440.0467300566588L852.5576565890132 440.0467300566588ZM934.3811735144462 374.71704975679717L921.6732887121822 374.71704975679717Q917.8579884251282 374.71704975679717 914.5122635580193 376.1844729441256Q911.1665386909106 377.62254766770747 908.6719192724522 380.08781862241926Q906.2066483177405 382.58243804087755 904.7685735941586 385.9281629079864Q903.3011504068302 389.2738877750952 903.3011504068302 393.0891880621491L903.3011504068302 393.0891880621491L903.3011504068302 468.3093006446043L890.6226140683126 468.3093006446043L890.6226140683126 362.6548311569575L894.8487928478185 362.6548311569575L901.7750302920086 373.3963688882016Q906.0892544627542 367.4973276751413 912.6633103419856 364.03420895304623Q919.2080177574703 360.6004386946977 926.9560121865644 360.6004386946977L926.9560121865644 360.6004386946977L934.3811735144462 360.6004386946977L934.3811735144462 374.71704975679717ZM1030.321301501979 468.3093006446043L1013.8274648764074 468.3093006446043L970.6852231689517 415.4820659007809L1013.8274648764074 362.6548311569575L1030.321301501979 362.6548311569575L986.1812120271398 415.4820659007809L1030.321301501979 468.3093006446043ZM968.2199522142398 468.3093006446043L955.5120674119756 468.3093006446043L955.5120674119756 320.36369489815223L968.2199522142398 320.36369489815223L968.2199522142398 468.3093006446043ZM1238.0203794364447 320.36369489815223L1198.9282257260154 468.3093006446043L1192.001988281825 468.3093006446043L1163.2111453464413 356.99057765386976L1162.8002668539893 351.20893029579577L1162.1839491153114 356.99057765386976L1133.5985454261536 468.3093006446043L1126.7016564457103 468.3093006446043L1087.3747150253084 320.36369489815223L1100.6989175662502 320.36369489815223L1129.69519974786 432.8270079750029L1130.106078240312 438.2858222318647L1130.516956732764 432.8270079750029L1158.9849665669356 320.36369489815223L1166.4101278948174 320.36369489815223L1194.9074861927354 432.8270079750029L1195.3183646851874 438.2858222318647L1195.8172885688791 432.8270079750029L1224.725525359249 320.36369489815223L1238.0203794364447 320.36369489815223ZM1321.6928495779116 468.3093006446043L1317.4666707984056 468.3093006446043L1310.452387962976 457.7732021595862Q1306.1088153284836 463.4668041264205 1299.6228048404919 466.9299228485156Q1293.1367943525006 470.36369310686416 1285.3887999234062 470.36369310686416L1285.3887999234062 470.36369310686416L1282.18981737503 470.36369310686416Q1275.7918522782784 470.36369310686416 1270.1275987751906 467.95711907964557Q1264.4339968083564 465.5211965886803 1260.2078180288504 461.29501780917445Q1255.9816392493447 457.0688390296686 1253.5457167583795 451.3752370628343Q1251.139142731161 445.7109835597466 1251.139142731161 439.3130184629946L1251.139142731161 439.3130184629946L1251.139142731161 438.2858222318647Q1251.139142731161 431.88785713511277 1253.5457167583795 426.223603632025Q1255.9816392493447 420.5300016651907 1260.2078180288504 416.30382288568484Q1264.4339968083564 412.077644106179 1270.1275987751906 409.6417216152138Q1275.7918522782784 407.2351475879952 1282.18981737503 407.2351475879952L1282.18981737503 407.2351475879952L1309.0143132393937 407.2351475879952L1309.0143132393937 390.91740174490303Q1309.0143132393937 387.10210145784913 1307.5762385158123 383.75637659074033Q1306.1088153284836 380.4106517236315 1303.6435443737719 377.9160323051732Q1301.1782734190601 375.4507613504614 1297.803200088205 374.01268662687954Q1294.457475221096 372.5452634395511 1290.642174934042 372.5452634395511L1290.642174934042 372.5452634395511L1283.2170136061604 372.5452634395511Q1279.4017133191064 372.5452634395511 1276.0559884519976 374.01268662687954Q1272.6809151211419 375.4507613504614 1270.2156441664301 377.9160323051732Q1267.7503732117186 380.4106517236315 1266.2829500243902 383.75637659074033Q1264.8448753008083 387.10210145784913 1264.8448753008083 390.91740174490303L1264.8448753008083 390.91740174490303L1264.8448753008083 394.732702031957L1252.1663389622909 392.67830956969715L1252.1663389622909 391.65111333856726Q1252.1663389622909 385.2531482418153 1254.5729129895094 379.58889473872756Q1257.0088354804745 373.89529277189325 1261.2350142599803 369.6691139923874Q1265.4611930394863 365.44293521288154 1271.1547950063205 363.00701272191634Q1276.8190485094083 360.6004386946977 1283.2170136061604 360.6004386946977L1283.2170136061604 360.6004386946977L1290.642174934042 360.6004386946977Q1297.0401400307942 360.6004386946977 1302.704393533882 363.00701272191634Q1308.3979955007162 365.44293521288154 1312.6241742802217 369.6691139923874Q1316.8503530597277 373.89529277189325 1319.286275550693 379.58889473872756Q1321.6928495779116 385.2531482418153 1321.6928495779116 391.65111333856726L1321.6928495779116 391.65111333856726L1321.6928495779116 468.3093006446043ZM1309.0143132393937 440.0467300566588L1309.0143132393937 417.12557987058875L1282.18981737503 417.12557987058875Q1278.3745170879765 417.12557987058875 1275.0287922208677 418.5636545941706Q1271.6537188900124 420.03107778149905 1269.1884479353005 422.55504566370394Q1266.7231769805885 425.0790135459088 1265.2557537932603 428.4247384130177Q1263.8176790696784 431.7704632801265 1263.8176790696784 435.615112030927L1263.8176790696784 435.615112030927L1263.8176790696784 440.0467300566588Q1263.8176790696784 443.8620303437127 1265.2557537932603 447.2077552108215Q1266.7231769805885 450.5534800779304 1269.1884479353005 453.0480994963887Q1271.6537188900124 455.51337045110046 1275.0287922208677 456.9514451746823Q1278.3745170879765 458.38951989826415 1282.18981737503 458.38951989826415L1282.18981737503 458.38951989826415L1290.642174934042 458.38951989826415Q1294.457475221096 458.38951989826415 1297.803200088205 456.9514451746823Q1301.1782734190601 455.51337045110046 1303.6435443737719 453.0480994963887Q1306.1088153284836 450.5534800779304 1307.5762385158123 447.2077552108215Q1309.0143132393937 443.8620303437127 1309.0143132393937 440.0467300566588L1309.0143132393937 440.0467300566588ZM1417.6623260291908 468.3093006446043L1404.9544412269265 468.3093006446043L1404.9544412269265 390.91740174490303Q1404.9544412269265 387.10210145784913 1403.5163665033447 383.75637659074033Q1402.0782917797628 380.4106517236315 1399.613020825051 377.9160323051732Q1397.118401406593 375.4507613504614 1393.772676539484 374.01268662687954Q1390.4269516723753 372.5452634395511 1386.6116513853212 372.5452634395511L1386.6116513853212 372.5452634395511L1378.129945362563 372.5452634395511Q1374.314645075509 372.5452634395511 1370.9689202084 374.01268662687954Q1367.6231953412912 375.4507613504614 1365.128575922833 377.9160323051732Q1362.6633049681213 380.4106517236315 1361.2252302445395 383.75637659074033Q1359.7871555209576 387.10210145784913 1359.7871555209576 390.91740174490303L1359.7871555209576 390.91740174490303L1359.7871555209576 468.3093006446043L1347.0792707186934 468.3093006446043L1347.0792707186934 362.6548311569575L1351.3054494981993 362.6548311569575L1358.2316869423894 373.3963688882016Q1362.5752595768818 367.4973276751413 1369.1199669923662 364.03420895304623Q1375.6646744078512 360.6004386946977 1383.4126688369452 360.6004386946977L1383.4126688369452 360.6004386946977L1386.6116513853212 360.6004386946977Q1393.0096164820734 360.6004386946977 1398.6738699851608 363.00701272191634Q1404.3381234882486 365.44293521288154 1408.593650731501 369.6691139923874Q1412.819829511007 373.89529277189325 1415.2264035382254 379.58889473872756Q1417.6623260291908 385.2531482418153 1417.6623260291908 391.65111333856726L1417.6623260291908 391.65111333856726L1417.6623260291908 468.3093006446043ZM1460.9806585191263 337.2684100161757L1446.2477297183486 337.2684100161757L1446.2477297183486 320.36369489815223L1460.9806585191263 320.36369489815223L1460.9806585191263 337.2684100161757ZM1459.953462287996 468.3093006446043L1447.2749259494785 468.3093006446043L1447.2749259494785 362.6548311569575L1459.953462287996 362.6548311569575L1459.953462287996 468.3093006446043Z " fill="#dbb98f" transform="matrix(0.6054007183221414,0,0,0.6054007183221414,-9.478802526054071,60.6465264130492)"/></g></svg>